<?xml version="1.0" standalone="no"?>
<!DOCTYPE svg PUBLIC "-//W3C//DTD SVG 20010904//EN"
 "http://www.w3.org/TR/2001/REC-SVG-20010904/DTD/svg10.dtd">
<svg version="1.0" xmlns="http://www.w3.org/2000/svg"
 width="1024.000000pt" height="1024.000000pt" viewBox="0 0 1024.000000 1024.000000"
 preserveAspectRatio="xMidYMid meet">

<g transform="translate(0.000000,1024.000000) scale(0.100000,-0.100000)"
fill="#000000" stroke="none">
<path d="M0 5120 l0 -5120 5120 0 5120 0 0 5120 0 5120 -5120 0 -5120 0 0
-5120z m5137 3658 c11 -13 29 -39 38 -58 10 -19 59 -102 108 -185 50 -82 120
-204 157 -270 77 -140 210 -365 430 -730 87 -143 194 -323 240 -400 46 -77
100 -165 120 -195 20 -30 59 -93 85 -140 48 -84 151 -243 186 -289 11 -13 19
-27 19 -31 0 -5 -53 21 -117 57 -65 36 -208 111 -318 168 -110 56 -267 138
-350 180 -82 43 -238 123 -345 178 -107 55 -212 109 -233 120 l-38 19 -102
-50 c-56 -28 -146 -71 -200 -97 -55 -26 -203 -101 -330 -167 -128 -66 -342
-177 -477 -245 -135 -69 -261 -136 -280 -149 -33 -23 -60 -31 -60 -18 0 3 10
20 23 37 12 18 49 84 83 147 33 63 123 219 200 345 240 394 385 629 458 743
27 43 68 111 91 152 23 41 56 98 72 125 17 28 95 158 173 290 144 243 279 450
308 473 23 17 36 15 59 -10z m-2113 -703 c67 -34 149 -117 179 -182 19 -41 22
-66 22 -163 0 -105 -2 -120 -27 -170 -30 -60 -93 -130 -149 -166 -56 -35 -144
-57 -198 -50 -105 14 -216 101 -272 213 -33 65 -34 73 -34 178 0 105 2 114 33
177 52 106 153 184 257 197 70 9 123 -1 189 -34z m4109 29 c55 -19 138 -90
161 -138 30 -64 14 -151 -40 -207 l-24 -25 43 -30 c43 -31 67 -79 67 -135 -1
-67 -75 -158 -166 -203 -142 -71 -324 6 -368 155 -28 94 -16 144 46 193 28 22
31 28 21 43 -74 105 -70 210 9 284 79 73 161 94 251 63z m-4962 -31 c83 -41
154 -110 186 -179 23 -51 25 -65 21 -162 -4 -97 -7 -113 -36 -170 -64 -124
-182 -203 -315 -210 -57 -4 -75 0 -121 22 -105 51 -199 184 -212 297 -20 173
68 337 219 410 84 41 164 38 258 -8z m6304 7 c60 -35 114 -89 143 -145 26 -48
27 -57 27 -195 0 -141 -1 -147 -30 -203 -37 -74 -91 -129 -161 -163 -108 -53
-212 -27 -307 75 -63 67 -86 121 -98 230 -22 199 43 346 184 412 59 28 185 22
242 -11z m-709 -8 c50 -26 121 -97 142 -142 13 -27 16 -68 17 -190 l0 -155
-32 -55 c-17 -30 -47 -69 -65 -87 -44 -42 -148 -93 -189 -93 -79 0 -190 83
-239 179 -49 97 -50 304 -1 398 33 65 123 139 201 164 39 13 123 3 166 -19z
m-5881 -1149 c33 -38 147 -153 253 -258 106 -104 202 -203 212 -220 27 -40 25
-67 -6 -104 -44 -53 -64 -45 -183 77 -58 60 -184 188 -278 285 -121 123 -173
183 -173 198 0 32 58 89 89 89 19 0 42 -17 86 -67z m6525 57 c5 0 22 -12 39
-26 48 -40 42 -66 -31 -132 -155 -143 -338 -320 -420 -407 -49 -52 -104 -105
-120 -116 l-30 -22 -50 50 -50 50 66 75 c84 98 515 518 541 528 11 5 26 7 33
4 8 -2 17 -4 22 -4z m-3220 -35 c71 -30 358 -177 800 -408 63 -33 168 -87 233
-119 64 -32 117 -63 117 -68 0 -5 -19 -19 -42 -31 -46 -23 -333 -192 -731
-431 -329 -198 -474 -273 -495 -256 -8 7 -50 31 -93 53 -77 40 -211 119 -424
250 -109 67 -215 130 -328 196 -32 19 -95 57 -139 86 -45 29 -116 69 -159 90
-44 21 -79 42 -79 48 0 16 88 66 278 155 191 90 306 148 492 250 173 95 440
219 472 220 9 0 53 -16 98 -35z m-1490 16 c0 -5 -24 -49 -52 -99 -29 -49 -60
-103 -69 -119 -10 -19 -50 -47 -125 -87 -221 -120 -516 -335 -711 -519 -175
-165 -279 -281 -417 -467 -427 -573 -672 -1159 -740 -1770 -38 -342 -44 -486
-25 -677 13 -129 6 -149 -52 -173 -28 -12 -36 -11 -68 6 -64 34 -66 45 -66
364 1 252 4 309 27 486 61 457 191 885 380 1252 121 235 330 550 497 747 351
414 715 711 1170 954 170 91 251 124 251 102z m2924 -29 c167 -79 532 -317
701 -459 39 -32 90 -74 115 -93 121 -93 403 -385 552 -570 125 -156 348 -509
450 -715 166 -331 289 -744 344 -1155 24 -173 27 -771 6 -832 -26 -72 -88 -89
-137 -38 l-29 31 4 122 c8 196 3 526 -9 643 -52 495 -189 921 -439 1364 -230
408 -570 798 -987 1131 -90 72 -211 154 -420 282 l-166 103 -60 113 -61 114
37 -6 c20 -3 65 -19 99 -35z m245 -567 c123 -65 180 -131 166 -195 -7 -32 -23
-49 -340 -377 -115 -119 -291 -300 -389 -402 -245 -253 -264 -255 -104 -11 52
80 143 213 201 295 59 83 149 211 202 285 52 74 115 168 140 209 l45 73 -25
70 c-14 38 -25 73 -25 79 0 20 66 7 129 -26z m-3425 -10 c-1 -16 -7 -49 -14
-72 -11 -39 -10 -45 20 -105 17 -35 83 -131 146 -215 104 -139 285 -393 470
-664 40 -59 70 -109 67 -113 -20 -20 -62 17 -265 237 -124 133 -334 354 -468
491 -237 243 -242 249 -237 283 12 69 83 135 188 173 73 27 94 23 93 -15z
m285 -169 c25 -18 89 -57 141 -86 140 -77 364 -211 535 -318 143 -91 591 -363
665 -405 l36 -20 97 54 c54 30 139 81 190 115 51 33 175 109 277 169 102 59
228 136 280 170 127 83 317 198 360 220 19 10 72 39 116 66 132 79 137 66 22
-61 -45 -50 -82 -99 -83 -109 -2 -20 -15 -41 -125 -186 -42 -55 -118 -161
-170 -235 -51 -74 -105 -151 -119 -170 -14 -19 -53 -76 -86 -127 -75 -113
-189 -281 -270 -393 -33 -47 -76 -111 -94 -143 -41 -72 -233 -341 -273 -384
-37 -38 -122 -77 -153 -69 -25 6 -112 110 -170 201 -20 33 -69 105 -108 160
-182 257 -242 343 -363 514 -165 234 -372 517 -439 601 -29 36 -77 101 -106
145 -29 44 -91 129 -136 190 -105 138 -111 164 -24 101z m-670 -181 c64 -47
680 -660 761 -757 26 -31 56 -77 65 -102 17 -44 17 -48 0 -91 -24 -64 -71 -98
-145 -103 -72 -5 -109 13 -261 129 -57 43 -160 117 -229 163 -69 46 -168 120
-220 163 -52 44 -114 92 -136 109 -162 115 -214 168 -214 217 0 48 54 132 134
212 73 72 124 104 162 105 12 0 49 -20 83 -45z m4332 -67 c132 -136 156 -175
140 -230 -10 -31 -33 -55 -132 -135 -67 -54 -155 -124 -197 -156 -43 -33 -109
-90 -147 -128 -70 -68 -71 -69 -104 -58 -50 17 -108 5 -259 -57 -150 -61 -210
-92 -260 -136 -58 -50 -111 -22 -112 60 0 44 18 77 91 164 87 105 455 475 697
701 84 79 96 87 132 87 38 0 47 -6 151 -112z m-4785 -439 c27 -17 99 -68 159
-114 259 -192 387 -285 490 -355 161 -108 273 -197 290 -230 40 -78 27 -179
-30 -229 -70 -61 -166 -63 -257 -6 -29 19 -78 47 -108 63 -74 39 -278 154
-326 184 -22 14 -106 60 -189 103 -189 100 -345 191 -362 213 -22 30 -15 96
17 156 42 80 146 221 173 234 42 20 91 14 143 -19z m5178 -32 c60 -62 153
-215 162 -266 11 -55 -11 -80 -136 -155 -189 -113 -723 -376 -737 -362 -2 2
17 39 43 82 68 110 93 178 94 245 0 51 -3 60 -40 102 -22 25 -40 49 -40 54 0
4 28 23 63 41 34 18 89 52 122 77 33 24 121 87 195 139 122 86 139 96 179 96
41 0 49 -4 95 -53z m-825 -450 c47 -38 26 -129 -41 -177 -22 -16 -98 -85 -169
-154 -71 -69 -144 -133 -161 -142 l-33 -17 38 35 c20 19 34 38 30 42 -5 4 -1
6 7 4 10 -2 14 3 12 16 -2 12 1 16 9 10 8 -5 10 -3 4 6 -5 8 -1 18 10 26 10 8
16 16 13 19 -7 7 -237 -148 -333 -226 -77 -61 -140 -109 -423 -317 -70 -51
-140 -104 -155 -118 -16 -14 -39 -30 -53 -36 -13 -6 -24 -15 -24 -20 0 -4 -6
-8 -13 -8 -8 0 -22 -9 -32 -20 -10 -11 -21 -18 -25 -15 -3 2 -18 -7 -33 -21
-14 -13 -30 -24 -35 -24 -5 0 -15 -7 -22 -15 -7 -8 -16 -13 -20 -10 -4 3 -13
-2 -20 -10 -7 -8 -18 -15 -24 -15 -12 0 -146 -88 -261 -170 -38 -28 -93 -58
-122 -67 -37 -12 -82 -42 -163 -110 -62 -51 -115 -93 -117 -93 -3 0 -4 30 -1
68 9 121 44 165 228 286 235 154 431 290 635 441 116 85 254 185 307 221 92
62 419 304 648 480 118 91 187 133 233 145 37 8 86 2 106 -14z m1158 -131 c22
-25 57 -87 82 -147 37 -86 45 -115 45 -169 l1 -64 -40 -22 c-51 -29 -301 -114
-309 -107 -3 4 -6 2 -6 -4 0 -6 -33 -20 -72 -32 -40 -12 -86 -27 -102 -32 -31
-9 -63 -5 -111 16 -16 7 -42 12 -57 10 -30 -3 -47 22 -26 37 10 8 10 11 0 15
-6 2 -10 8 -7 13 3 4 -4 6 -15 3 -16 -4 -20 0 -20 19 0 39 -20 86 -38 90 -9 3
-71 -13 -137 -35 -84 -27 -142 -39 -194 -42 -47 -2 -76 -8 -82 -16 -4 -7 -10
-11 -13 -8 -14 13 52 52 234 138 107 50 323 156 480 236 178 90 297 144 317
144 25 1 39 -8 70 -43z m-5625 -104 c626 -314 704 -357 770 -431 87 -96 70
-233 -35 -287 -38 -20 -95 -14 -174 20 -32 13 -107 45 -168 71 -151 64 -259
103 -540 197 -306 103 -358 126 -381 170 -9 18 -17 51 -17 73 1 90 99 285 156
311 66 30 109 16 389 -124z m5005 -454 c-3 -7 -5 -2 -5 12 0 14 2 19 5 13 2
-7 2 -19 0 -25z m-5357 -120 c74 -22 173 -51 220 -64 102 -28 572 -182 650
-213 78 -31 128 -68 155 -115 51 -90 39 -174 -32 -219 -57 -38 -92 -41 -190
-18 -306 69 -365 82 -428 92 -38 6 -126 21 -195 35 -69 13 -194 33 -278 43
-133 17 -157 23 -187 45 -64 49 -80 82 -79 166 2 82 25 187 52 235 10 16 33
38 52 48 44 22 82 17 260 -35z m6204 1 c28 -32 46 -61 46 -76 0 -24 -1 -25
-64 -18 -35 4 -79 4 -97 -1 l-34 -8 30 -8 c24 -6 21 -6 -12 -3 -47 6 -150 -14
-263 -49 -41 -13 -109 -29 -150 -36 -41 -7 -93 -19 -115 -27 -70 -24 -425 -63
-425 -46 0 8 267 100 370 128 22 6 117 36 530 168 117 38 130 36 184 -24z
m-1430 -55 c3 -8 2 -12 -4 -9 -6 3 -10 10 -10 16 0 14 7 11 14 -7z m-1736
-118 l34 -17 -76 -44 c-42 -24 -106 -55 -142 -69 -149 -57 -295 -171 -344
-266 -95 -185 -50 -437 102 -574 103 -94 259 -140 398 -119 135 21 247 94 351
230 45 58 239 221 239 200 0 -22 -39 -173 -52 -203 -56 -129 -188 -266 -325
-337 -201 -104 -344 -101 -573 11 -218 106 -361 332 -362 572 -1 184 47 304
173 431 64 66 92 85 181 128 58 28 132 58 164 66 74 18 188 14 232 -9z m-3033
-521 c143 -13 332 -36 420 -49 88 -14 207 -30 265 -36 58 -6 129 -13 158 -16
38 -4 64 -14 95 -38 67 -51 87 -88 87 -162 0 -56 -3 -67 -30 -97 -54 -62 -32
-60 -696 -52 l-607 7 -38 35 c-49 45 -69 108 -69 222 0 100 24 161 74 192 39
24 29 24 341 -6z m2975 15 c0 -5 -4 -10 -10 -10 -5 0 -10 5 -10 10 0 6 5 10
10 10 6 0 10 -4 10 -10z m3253 -27 c37 -28 77 -94 77 -126 0 -16 -2 -16 -32 0
-30 16 -67 18 -396 18 -311 0 -364 2 -372 15 -6 9 -13 11 -17 5 -11 -13 -46
-16 -54 -4 -4 7 -35 6 -90 -1 -84 -10 -351 -28 -357 -24 -2 1 10 9 26 18 21
11 86 18 226 26 108 6 234 17 279 25 45 8 150 21 232 30 83 9 186 22 230 29
44 8 110 14 146 15 57 1 71 -3 102 -26z m-3273 5 c0 -9 3 -9 12 0 14 14 98 16
98 3 0 -13 -21 -25 -44 -26 -13 0 -22 -10 -27 -30 -9 -33 -54 -60 -83 -49 -23
9 -20 34 4 34 22 0 27 15 8 24 -10 5 -10 7 0 12 6 3 12 14 12 25 0 10 5 19 10
19 6 0 10 -5 10 -12z m-43 -124 c-3 -3 -12 -4 -19 -1 -8 3 -5 6 6 6 11 1 17
-2 13 -5z m1405 -649 c61 -21 123 -76 153 -136 49 -95 26 -233 -48 -295 -29
-25 -30 -27 -11 -37 40 -22 91 -85 104 -130 20 -73 9 -159 -26 -210 -33 -47
-107 -101 -162 -118 -77 -23 -185 -23 -262 0 -197 60 -283 290 -156 417 22 23
48 43 56 46 11 3 5 15 -23 48 -91 107 -83 243 20 341 95 91 225 118 355 74z
m-4314 -30 c134 -63 236 -195 263 -340 6 -33 9 -97 6 -143 -4 -66 -11 -96 -39
-155 -93 -194 -310 -305 -494 -252 -247 71 -385 274 -354 519 27 216 144 349
347 401 89 22 182 12 271 -30z m947 31 c132 -35 238 -123 302 -252 38 -78 38
-78 38 -203 0 -125 0 -127 -37 -204 -99 -207 -310 -318 -499 -263 -62 18 -159
73 -202 114 -49 47 -106 142 -128 214 -55 179 18 418 157 518 63 45 194 90
264 90 30 0 78 -6 105 -14z m4254 -12 c104 -33 216 -134 266 -240 37 -79 53
-210 37 -306 -25 -142 -125 -289 -235 -342 -206 -101 -453 -4 -564 220 -35 73
-38 84 -41 184 -8 224 75 375 253 460 100 48 187 55 284 24z m1024 -21 c91
-43 173 -127 223 -227 32 -66 37 -87 42 -168 5 -112 -8 -185 -51 -270 -57
-115 -183 -212 -310 -238 -107 -22 -262 22 -350 99 -48 43 -104 128 -128 199
-31 85 -29 231 5 336 64 202 208 308 411 303 78 -2 99 -6 158 -34z m-4497
-299 c41 -20 74 -70 74 -114 0 -68 -101 -118 -184 -90 -43 14 -86 62 -86 96 0
92 106 150 196 108z m1831 -14 c68 -41 78 -117 23 -164 -56 -46 -155 -46 -210
0 -25 21 -30 33 -30 67 1 46 15 71 57 99 38 25 118 24 160 -2z m-567 -19 c76
-75 29 -171 -83 -171 -35 0 -53 6 -77 27 -30 24 -32 30 -27 72 7 63 49 101
113 101 37 0 51 -5 74 -29z"/>
<path d="M2830 7949 c-46 -19 -92 -62 -111 -103 -25 -56 -26 -185 0 -241 47
-104 172 -143 263 -81 67 45 90 87 101 183 9 80 8 93 -10 134 -39 87 -163 142
-243 108z"/>
<path d="M7003 7958 c-33 -16 -49 -63 -33 -94 22 -41 75 -67 121 -61 96 13
121 100 45 151 -28 18 -99 20 -133 4z"/>
<path d="M7021 7669 c-13 -5 -36 -18 -52 -30 -69 -49 -4 -159 94 -159 71 0
147 59 147 114 0 21 -55 64 -98 76 -44 12 -59 12 -91 -1z"/>
<path d="M1948 7940 c-20 -11 -51 -41 -69 -67 -58 -84 -52 -235 13 -309 54
-61 112 -80 189 -60 96 25 149 103 156 229 4 72 1 87 -19 122 -37 63 -96 98
-171 102 -47 3 -71 -1 -99 -17z"/>
<path d="M8295 7943 c-83 -43 -108 -90 -108 -203 0 -97 13 -137 64 -192 86
-90 218 -35 258 108 32 114 1 216 -83 272 -53 35 -86 39 -131 15z"/>
<path d="M7595 7932 c-40 -25 -80 -79 -88 -120 -9 -46 11 -177 34 -227 23 -48
63 -75 113 -75 47 0 101 54 121 123 19 65 19 197 1 242 -28 67 -118 95 -181
57z"/>
<path d="M7273 5883 c9 -2 23 -2 30 0 6 3 -1 5 -18 5 -16 0 -22 -2 -12 -5z"/>
<path d="M6774 4774 c-18 -14 -18 -15 4 -4 12 6 22 13 22 15 0 8 -5 6 -26 -11z"/>
<path d="M8050 4776 c-47 -17 -118 -55 -104 -56 7 0 31 9 55 20 24 11 58 20
74 20 40 0 75 10 75 21 0 13 -59 10 -100 -5z"/>
<path d="M7840 4689 c-25 -12 -85 -37 -135 -56 -124 -47 -165 -66 -161 -71 4
-4 108 34 173 64 17 8 37 14 45 14 8 0 18 4 24 9 5 5 33 16 61 26 29 9 55 21
58 26 10 15 -17 10 -65 -12z"/>
<path d="M7450 4530 c-10 -6 -6 -9 18 -8 17 1 29 5 26 10 -7 11 -25 10 -44 -2z"/>
<path d="M7490 4460 c0 -11 5 -20 10 -20 6 0 10 9 10 20 0 11 -4 20 -10 20 -5
0 -10 -9 -10 -20z"/>
<path d="M5090 3430 c-8 -5 -12 -12 -9 -15 4 -3 12 1 19 10 14 17 11 19 -10 5z"/>
<path d="M6295 2585 c-117 -41 -128 -175 -19 -221 45 -19 70 -18 120 7 48 23
84 72 84 114 0 41 -43 92 -88 105 -46 12 -48 12 -97 -5z"/>
<path d="M6285 2206 c-5 -2 -23 -7 -38 -11 -16 -3 -40 -18 -53 -32 -33 -36
-34 -127 -2 -168 63 -81 232 -70 286 17 39 64 21 142 -40 174 -29 15 -131 28
-153 20z"/>
<path d="M1876 2564 c-64 -23 -103 -60 -138 -131 -27 -55 -34 -82 -37 -147 -4
-102 10 -147 67 -208 95 -102 198 -132 300 -88 189 81 234 398 75 529 -70 58
-181 77 -267 45z"/>
<path d="M2914 2562 c-69 -24 -99 -45 -134 -94 -43 -59 -63 -137 -58 -217 11
-152 128 -272 267 -272 257 -2 384 350 190 525 -81 73 -167 92 -265 58z"/>
<path d="M7170 2561 c-119 -39 -181 -128 -188 -271 -3 -69 0 -95 17 -142 39
-102 125 -168 232 -176 66 -5 117 17 175 75 131 131 104 414 -48 491 -50 25
-145 37 -188 23z"/>
<path d="M8140 2561 c-125 -38 -184 -139 -184 -311 0 -132 42 -209 141 -260
122 -63 290 10 353 153 30 67 30 172 1 249 -47 123 -196 204 -311 169z"/>
</g>
</svg>
